<svg xmlns="http://www.w3.org/2000/svg" xmlns:xlink="http://www.w3.org/1999/xlink" width="1024" zoomAndPan="magnify" viewBox="0 0 768 767.999994" height="1024" preserveAspectRatio="xMidYMid meet" version="1.0"><defs><clipPath id="2b6e87f185"><path d="M 17.539062 18.304688 L 750.289062 18.304688 L 750.289062 749.554688 L 17.539062 749.554688 Z M 17.539062 18.304688 " clip-rule="nonzero"/></clipPath></defs><g clip-path="url(#2b6e87f185)"><path fill="#000000" d="M 151.074219 667.59375 C 69.488281 600.3125 17.539062 498.628906 17.539062 384.679688 C 17.539062 361.515625 19.753906 339.03125 23.84375 317.058594 L 237.089844 480.742188 Z M 37.128906 266.472656 L 327.703125 459.964844 L 254.464844 727.546875 C 262.808594 730.613281 271.15625 733.507812 279.84375 736.0625 L 397.878906 434.074219 L 67.445312 200.046875 C 55.183594 220.996094 44.960938 243.140625 37.128906 266.472656 M 95.71875 158.488281 L 488.492188 413.125 L 415.761719 749.6875 C 424.960938 748.835938 433.988281 747.816406 442.84375 746.28125 L 575.1875 393.707031 L 146.648438 105.515625 C 127.910156 121.527344 110.878906 139.238281 95.71875 158.488281 M 188.207031 75.027344 L 665.972656 372.925781 L 598.863281 681.558594 C 690.667969 614.960938 750.453125 506.804688 750.453125 384.679688 C 750.453125 182.332031 586.429688 18.308594 384.082031 18.308594 C 312.035156 18.308594 244.753906 39.089844 188.207031 75.027344 " fill-opacity="1" fill-rule="evenodd"/></g></svg>